<svg version="1.1" id="Warstwa_1" xmlns="http://www.w3.org/2000/svg" x="0" y="0" viewBox="0 0 212.8 28.2" xml:space="preserve"><style>.st0{fill:#111}</style><path class="st0" d="M40.9 5.3h5V10H49v3.3h-3v7c0 .6.2 1 .5 1.2s.8.3 1.3.3h1.4v3.7c-.5 0-.9.1-1.4.1s-.9.1-1.4.1c-1.1 0-2-.1-2.7-.3-.7-.2-1.3-.5-1.7-.9s-.7-1-.8-1.7c-.2-.7-.2-1.6-.2-2.6l-.1-14.9zM51.5 10h4.9v2.7h.1c.4-1 1-1.7 1.8-2.2.7-.6 1.7-.8 2.8-.8h.6c.2 0 .4 0 .6.1v4.6c-.3-.1-.7-.2-1-.2s-.6-.1-1-.1c-.6 0-1.2.1-1.6.3-.5.2-.9.5-1.2.8s-.6.7-.7 1.2c-.2.4-.2.9-.2 1.4v7.6h-5L51.5 10zm11.8 4.7c0-1 .3-1.8.7-2.5s1-1.2 1.7-1.6c.7-.4 1.5-.7 2.3-.8.8-.2 1.7-.2 2.6-.2s1.8.1 2.7.2c.9.1 1.6.4 2.3.8.7.4 1.2.9 1.6 1.6.4.7.6 1.6.6 2.6v6.7c0 .7 0 1.3.1 2s.2 1.3.5 1.9h-5.1c-.1-.2-.2-.5-.2-.7s-.1-.5-.1-.7c-.7.7-1.4 1.2-2.3 1.5s-1.8.4-2.7.4c-.7 0-1.4-.1-2.1-.3-.6-.2-1.2-.5-1.7-.9s-.8-.9-1.1-1.5-.4-1.3-.4-2.1.1-1.5.4-2.1c.3-.6.7-1 1.1-1.4.5-.4 1-.6 1.6-.8.6-.2 1.2-.4 1.9-.5.7-.1 1.3-.2 2-.3s1.3-.2 1.9-.3c.4-.1.8-.2 1-.4s.3-.5.3-1c0-.3-.1-.5-.2-.7-.2-.2-.4-.4-.6-.5s-.5-.2-.8-.3-.6-.1-.8-.1c-1.4 0-2.3.6-2.5 1.9h-4.7v.1zm4.4 6.2c0 .6.2 1.1.6 1.4s.9.4 1.5.4c1.2 0 2-.4 2.5-1.1s.7-1.9.6-3.5c-.4.2-.8.4-1.4.5s-1.2.2-1.7.4c-.6.1-1.1.3-1.5.6-.4.3-.6.7-.6 1.3zm32.5-16.7h5v3.9h-5zm0 5.8h5v15.4h-5zm17.3 5.6c0-.3-.1-.6-.2-.9-.1-.3-.3-.5-.5-.7s-.5-.4-.8-.5-.6-.2-.9-.2c-.7 0-1.3.1-1.7.4-.4.3-.8.6-1 1.1-.2.4-.4.9-.5 1.5-.1.5-.1 1.1-.1 1.6s.1 1 .2 1.5.3.9.5 1.3.6.7.9.9c.4.2.8.4 1.4.4.9 0 1.6-.2 2-.7.5-.5.7-1.1.9-1.9h4.9c-.1 1-.4 1.9-.8 2.8-.4.8-1 1.5-1.7 2-.7.6-1.5 1-2.4 1.3s-1.9.4-2.9.4c-1.2 0-2.2-.2-3.2-.6s-1.8-.9-2.5-1.6-1.3-1.5-1.7-2.5c-.4-1-.6-2-.6-3.2s.2-2.4.6-3.4.9-1.9 1.6-2.7c.7-.7 1.5-1.3 2.5-1.7s2.1-.6 3.4-.6c.9 0 1.9.1 2.7.4.9.3 1.7.6 2.4 1.1.7.5 1.3 1.1 1.7 1.9.4.8.7 1.6.8 2.7l-5-.1zm6.7-10.3h5V10h3.1v3.3h-3.1v7c0 .6.2 1 .5 1.2s.8.3 1.3.3h1.3v3.7c-.5 0-.9.1-1.4.1s-.9.1-1.4.1c-1.1 0-2-.1-2.7-.3-.7-.2-1.3-.5-1.7-.9-.4-.4-.7-1-.8-1.7-.2-.7-.2-1.6-.2-2.6l.1-14.9zm10.5 4.7h4.9v2.7h.1c.4-1 1-1.7 1.8-2.2s1.8-.8 2.8-.8h.6c.2 0 .4 0 .6.1v4.6c-.3-.1-.7-.2-1-.2s-.6-.1-1-.1c-.6 0-1.2.1-1.6.3-.5.2-.9.5-1.2.8s-.6.7-.7 1.2c-.2.4-.2.9-.2 1.4v7.6h-5V10h-.1zm16.3 8.9c0 1.1.4 1.9.9 2.5.6.6 1.4.9 2.5.9.6 0 1.2-.1 1.7-.4s.9-.7 1.2-1.3h4.7c-.2.9-.6 1.7-1.1 2.3-.5.6-1.1 1.2-1.8 1.6s-1.4.7-2.3.9c-.8.2-1.7.3-2.5.3-1.2 0-2.4-.2-3.4-.5-1-.4-1.9-.9-2.7-1.6-.7-.7-1.3-1.6-1.7-2.6s-.6-2.2-.6-3.5c0-1.2.2-2.3.7-3.3.4-1 1-1.8 1.8-2.5s1.6-1.3 2.7-1.7c1-.4 2.1-.6 3.2-.6 1.4 0 2.6.2 3.6.7s1.9 1.2 2.5 2c.7.9 1.2 1.8 1.5 3 .3 1.1.4 2.4.4 3.7H151v.1zm6.2-2.8c0-.9-.3-1.6-.9-2.2-.6-.6-1.3-.9-2.1-.9-.9 0-1.6.3-2.2.9-.6.6-.9 1.3-1.1 2.3h6.3v-.1zm6.2-6.1h4.9v2.1h.1c.2-.4.5-.8.9-1.1s.8-.6 1.2-.8.9-.4 1.4-.5.9-.2 1.4-.2c1.3 0 2.3.2 3 .6.7.4 1.3.9 1.7 1.5s.6 1.2.7 1.9c.1.7.2 1.3.2 1.9v9.9h-5v-8.9c0-.5-.1-1-.2-1.4-.1-.4-.4-.7-.7-1-.3-.2-.9-.4-1.6-.4-.5 0-.9.1-1.2.3s-.6.4-.8.7-.4.7-.5 1.1-.2.8-.2 1.2v8.4h-5V10h-.3zm33 15.4h-4.8v-1.8h-.1c-1 1.5-2.4 2.2-4.2 2.2-1.2 0-2.2-.2-3.1-.7-.9-.5-1.6-1.1-2.1-1.9-.6-.8-1-1.7-1.2-2.7-.3-1-.4-2.1-.4-3.2 0-1 .1-2 .4-2.9.3-.9.7-1.8 1.2-2.5s1.2-1.3 2-1.8c.8-.4 1.8-.7 2.8-.7 1.9 0 3.3.7 4.4 2.1h.1V4.2h5v21.2zm-7.8-12c-.6 0-1.1.1-1.5.4-.4.2-.7.6-1 1-.2.4-.4.8-.5 1.3s-.2 1-.2 1.5.1 1.1.2 1.6.3 1 .5 1.4.6.8 1 1c.4.3.9.4 1.5.4s1.1-.1 1.5-.4.7-.6.9-1 .4-.9.5-1.4.1-1 .1-1.5c0-.6-.1-1.1-.2-1.6s-.3-1-.5-1.4-.5-.7-.9-1c-.4-.2-.9-.3-1.4-.3zm14.1 6.9c0 .4.1.7.2 1 .1.3.4.5.6.7.2.2.5.3.8.4s.7.1 1 .1c.2 0 .5 0 .8-.1s.5-.2.8-.3c.2-.1.4-.3.6-.5.2-.2.2-.5.2-.8s-.1-.5-.3-.7-.4-.3-.6-.5c-.2-.1-.5-.2-.8-.3-.3-.1-.5-.1-.8-.2-.8-.2-1.6-.4-2.4-.5-.8-.2-1.6-.4-2.3-.7-.7-.3-1.3-.8-1.7-1.3-.4-.6-.7-1.4-.7-2.4 0-.9.2-1.7.7-2.3.4-.6 1-1.1 1.7-1.4.7-.4 1.5-.6 2.3-.8.8-.1 1.6-.2 2.4-.2.9 0 1.7.1 2.5.2s1.6.4 2.2.8c.7.4 1.2.9 1.6 1.5.4.6.7 1.5.7 2.5h-4.7c0-.6-.2-1.1-.7-1.3-.4-.3-.9-.4-1.6-.4h-.7c-.2 0-.5.1-.7.1-.2.1-.4.2-.5.4s-.2.4-.2.6c0 .4.2.7.6.9.4.2.8.4 1.4.6.6.1 1.2.3 1.9.4.7.1 1.3.2 1.9.4.8.2 1.4.4 1.9.7.5.3.9.7 1.2 1.1s.5.8.6 1.2c.1.4.2.8.2 1.1 0 1-.2 1.9-.7 2.6-.4.7-1 1.3-1.7 1.7-.7.4-1.5.7-2.4.9-.9.2-1.8.3-2.6.3-.9 0-1.8-.1-2.7-.3-.9-.2-1.7-.5-2.4-.9s-1.3-1-1.7-1.7-.7-1.6-.7-2.7l4.8.1zM0 0h15.5v2.5H0zm17 0h15.5v2.5H17zM0 2.5h15.5V5H0zm17 0h15.5V5H17zM0 10.3h7.8v2.5H0zm7.8 15.4h7.7v2.5H7.8z"/><path class="st0" d="M0 7.8v2.5h7.8v15.4h7.7V4.9H0zm24.7 2.5h7.8v2.5h-7.8zM17 25.7h7.7v2.5H17z"/><path class="st0" d="M17 23.2v2.5h7.7V10.3h7.8V4.9H17zM98 10h-2.5v-.7c0-.7.2-1.1.5-1.3s.8-.3 1.4-.3h.7V4.2h-1.7c-1.1 0-2 .1-2.7.3-.8.2-1.4.5-1.8.9-.5.4-.8 1-1 1.8-.2.7-.3 1.7-.3 2.8v15.4h5V13.2H98V10zm-9.9 0h-2.5v-.7c0-.7.2-1.1.5-1.3s.8-.3 1.4-.3h.7V4.2h-1.7c-1.1 0-2 .1-2.7.3-.8.2-1.4.5-1.8.9-.5.4-.8 1-1 1.8-.2.7-.3 1.7-.3 2.8v15.4h5V13.2h2.5l-.1-3.2z"/></svg>