<?xml version="1.0" encoding="utf-8"?>
<!-- Generator: Adobe Illustrator 22.0.1, SVG Export Plug-In . SVG Version: 6.00 Build 0)  -->
<svg version="1.1" id="Layer_1" xmlns="http://www.w3.org/2000/svg" xmlns:xlink="http://www.w3.org/1999/xlink" x="0px" y="0px"
	 viewBox="0 0 42 32" style="enable-background:new 0 0 42 32;" xml:space="preserve">
<g>
	<path d="M38.5,26c-0.3,0-0.5-0.2-0.5-0.5V2.1C38,1.5,37.6,1,37,1H5C4.4,1,4,1.4,4,2v23.5C4,25.8,3.8,26,3.5,26S3,25.8,3,25.5V2
		c0-1.2,0.8-2,2-2h32c1.1,0,2,0.9,2,2.1v23.4C39,25.8,38.8,26,38.5,26z"/>
</g>
<g>
	<path d="M35.5,26h-29C6.2,26,6,25.8,6,25.5v-22C6,3.2,6.2,3,6.5,3h29C35.8,3,36,3.2,36,3.5v22C36,25.8,35.8,26,35.5,26z M7,25h28V4
		H7V25z"/>
</g>
<g>
	<path d="M39.5,32h-37C1.4,32,0,30.9,0,29.7v-1.2C0,28.2,0.2,28,0.5,28h41c0.3,0,0.5,0.2,0.5,0.5v1C42,30.6,40.6,32,39.5,32z M1,29
		v0.7C1,30.2,1.9,31,2.5,31h37c0.6,0,1.5-0.9,1.5-1.5V29H1z"/>
</g>
</svg>
