<?xml version="1.0" encoding="utf-8"?>
<!-- Generator: Adobe Illustrator 22.0.1, SVG Export Plug-In . SVG Version: 6.00 Build 0)  -->
<svg version="1.1" id="Layer_1" xmlns="http://www.w3.org/2000/svg" xmlns:xlink="http://www.w3.org/1999/xlink" x="0px" y="0px"
	 viewBox="0 0 43.6 26" style="enable-background:new 0 0 43.6 26;" xml:space="preserve">
<g>
	<path d="M18,26c-0.1,0-0.1,0-0.2,0c-2.9-1.2-3.8-3.2-4.1-4.7c0-0.2,0-0.4,0.2-0.5c1.7-1.4,3.1-3.6,3.9-6.1c0-0.1,0-0.1,0.1-0.2
		c0.8-1,1.2-2,1.2-2.8c0-0.5-0.1-0.8-0.5-1.1c-0.1-0.1-0.2-0.2-0.2-0.4c-0.1-5.2-3.7-9.3-8.2-9.3c0,0-0.1,0-0.1,0
		c-4.5,0-8.1,4-8.3,9.1c0,0.2-0.1,0.3-0.2,0.4C1.2,10.8,1,11.2,1,11.8c0,1,0.6,2.2,1.6,3.3c0,0,0.1,0.1,0.1,0.2
		c0.8,2.2,2,4.1,3.5,5.4c0.1,0.1,0.2,0.3,0.2,0.5c-0.3,1.5-1.2,3.4-4.1,4.7c-0.3,0.1-0.5,0-0.7-0.3c-0.1-0.3,0-0.5,0.3-0.7
		c1.9-0.8,3-2,3.4-3.7c-1.5-1.4-2.7-3.3-3.6-5.5C0.7,14.4,0,12.9,0,11.8c0-0.8,0.3-1.5,0.9-1.9C1.3,4.3,5.3,0,10.2,0
		c0,0,0.1,0,0.1,0c5,0.1,9,4.5,9.2,10.1c0.4,0.4,0.6,1,0.6,1.7c0,1-0.5,2.2-1.4,3.3c-0.8,2.6-2.3,4.9-4,6.3c0.4,1.6,1.6,2.9,3.4,3.7
		c0.3,0.1,0.4,0.4,0.3,0.7C18.4,25.9,18.2,26,18,26z"/>
</g>
<g>
	<path d="M39.5,26c-0.1,0-0.1,0-0.2,0c-2.9-1.2-3.8-3.2-4.1-4.7c0-0.2,0-0.3,0.1-0.4c0.1-0.1,0.3-0.2,0.4-0.2
		c3.4,0.4,5.5-0.4,6.4-0.9c-2.6-2.2-2.6-7.2-2.6-9.5c0-5.2-3.3-9.2-7.8-9.3c0,0-0.1,0-0.1,0c-4.5,0-8.1,4.1-8.1,9.1
		c0,2.2,0,7.3-2.6,9.5c1.1,0.6,3.6,1.8,6.3,1c0.2-0.1,0.4,0,0.5,0.1c0.1,0.1,0.2,0.3,0.2,0.5c-0.3,1.5-1.2,3.4-4.1,4.7
		c-0.3,0.1-0.5,0-0.7-0.3c-0.1-0.3,0-0.5,0.3-0.7c1.7-0.7,2.8-1.8,3.3-3.2c-3.7,0.7-6.8-1.6-6.9-1.7c-0.1-0.1-0.2-0.3-0.2-0.4
		c0-0.2,0.1-0.3,0.3-0.4c2.7-1.6,2.7-7,2.7-9C22.6,4.6,26.7,0,31.7,0c0,0,0.1,0,0.1,0c4.9,0.1,8.8,4.6,8.8,10.3c0,2,0,7.5,2.7,9
		c0.1,0.1,0.2,0.2,0.2,0.4s0,0.3-0.2,0.4c-0.1,0.1-2.3,2-7,1.6c0.5,1.4,1.6,2.5,3.3,3.3c0.3,0.1,0.4,0.4,0.3,0.7
		C39.9,25.9,39.7,26,39.5,26z"/>
</g>
</svg>
