<?xml version="1.0" encoding="utf-8"?>
<!-- Generator: Adobe Illustrator 22.0.1, SVG Export Plug-In . SVG Version: 6.00 Build 0)  -->
<svg version="1.1" id="Warstwa_1" xmlns="http://www.w3.org/2000/svg" xmlns:xlink="http://www.w3.org/1999/xlink" x="0px" y="0px"
	 viewBox="0 0 45.2 44.2" style="enable-background:new 0 0 45.2 44.2;" xml:space="preserve">
<g>
	<g>
		<path d="M45.1,13c-0.1-2.3-0.5-4-1-5.4c-0.6-1.5-1.4-2.7-2.6-3.9c-1.3-1.2-2.5-2-4-2.5c-1.4-0.5-3.1-0.9-5.5-1
			C29.5,0,28.8,0,22.6,0s-6.9,0-9.3,0.1c-2.4,0.1-4.1,0.5-5.5,1c-1.5,0.6-2.7,1.3-4,2.5c-1.3,1.2-2,2.5-2.6,3.9
			c-0.6,1.4-0.9,3-1,5.4C0,15.3,0,16.1,0,22.1s0,6.8,0.1,9.1c0.1,2.3,0.5,4,1,5.4c0.6,1.5,1.4,2.7,2.6,3.9c1.3,1.2,2.5,2,4,2.5
			c1.4,0.5,3.1,0.9,5.5,1c2.4,0.1,3.2,0.1,9.3,0.1s6.9,0,9.3-0.1c2.4-0.1,4.1-0.5,5.5-1c1.5-0.6,2.7-1.3,4-2.5
			c1.3-1.2,2-2.5,2.6-3.9c0.6-1.4,0.9-3,1-5.4c0.1-2.4,0.1-3.1,0.1-9.1S45.2,15.3,45.1,13z M41,31c-0.1,2.1-0.5,3.3-0.8,4.1
			c-0.4,1-0.9,1.8-1.7,2.5c-0.8,0.8-1.5,1.2-2.6,1.7c-0.8,0.3-2,0.7-4.2,0.8c-2.4,0.1-3.1,0.1-9.1,0.1s-6.8,0-9.1-0.1
			c-2.2-0.1-3.4-0.5-4.2-0.8c-1.1-0.4-1.8-0.9-2.6-1.7c-0.8-0.8-1.3-1.5-1.7-2.5c-0.3-0.8-0.7-2-0.8-4.1c-0.1-2.3-0.1-3-0.1-8.9
			c0-5.9,0-6.6,0.1-8.9C4.3,11,4.7,9.8,5,9.1c0.4-1,0.9-1.8,1.7-2.5c0.8-0.8,1.5-1.2,2.6-1.7c0.8-0.3,2-0.7,4.2-0.8
			C15.9,4,16.6,4,22.6,4s6.8,0,9.1,0.1C34,4.2,35.2,4.6,36,4.9c1.1,0.4,1.8,0.9,2.6,1.7c0.8,0.8,1.3,1.5,1.7,2.5
			c0.3,0.8,0.7,1.9,0.8,4.1c0.1,2.3,0.1,3,0.1,8.9C41.2,28,41.1,28.7,41,31z M22.6,10.7c-6.4,0-11.6,5.1-11.6,11.3
			c0,6.3,5.2,11.3,11.6,11.3c6.4,0,11.6-5.1,11.6-11.3C34.2,15.8,29,10.7,22.6,10.7z M22.6,29.4c-4.2,0-7.5-3.3-7.5-7.4
			c0-4.1,3.4-7.4,7.5-7.4c4.2,0,7.5,3.3,7.5,7.4C30.2,26.1,26.8,29.4,22.6,29.4z M34.7,7.6c-0.8,0-1.4,0.3-1.9,0.8
			C32.2,8.9,32,9.6,32,10.3c0,0.7,0.3,1.4,0.8,1.9c0.5,0.5,1.2,0.8,1.9,0.8c0.8,0,1.4-0.3,1.9-0.8c0.5-0.5,0.8-1.1,0.8-1.9
			c0-0.7-0.3-1.4-0.8-1.9C36.1,7.9,35.4,7.6,34.7,7.6z"/>
	</g>
</g>
</svg>
