<?xml version="1.0" encoding="utf-8"?>
<!-- Generator: Adobe Illustrator 22.0.1, SVG Export Plug-In . SVG Version: 6.00 Build 0)  -->
<svg version="1.1" id="Layer_1" xmlns="http://www.w3.org/2000/svg" xmlns:xlink="http://www.w3.org/1999/xlink" x="0px" y="0px"
	 viewBox="0 0 47.3 45.4" style="enable-background:new 0 0 47.3 45.4;" xml:space="preserve">
<style type="text/css">
	.st0{fill:#010202;}
</style>
<g>
	<g>
		<g>
			<path class="st0" d="M8.1,45.4H2c-1.1,0-2-0.9-2-2V16.2c0-1.1,0.9-2,2-2h6c1.1,0,2,0.9,2,2v27.2C10.1,44.5,9.2,45.4,8.1,45.4z
				 M2,15.2c-0.6,0-1,0.5-1,1v27.2c0,0.6,0.5,1,1,1h6c0.6,0,1-0.5,1-1V16.2c0-0.6-0.5-1-1-1H2z"/>
		</g>
	</g>
</g>
<g>
	<g>
		<g>
			<path class="st0" d="M37.8,42.4C37.8,42.4,37.8,42.4,37.8,42.4H12.1V17.5l0.2-0.1c0.1-0.1,7.3-6.6,9.6-8.9
				c1.2-1.2,2.1-2.8,2.4-4.6c0-0.2,0.1-0.4,0.1-0.6c0.1-0.6,0.1-1.1,0.5-1.7c0.4-0.7,1.1-1.2,1.8-1.4c1.2-0.3,2.7-0.1,3.9,0.6
				c3.2,1.7,4.1,6.5,2.9,9.8l-1.3,3.7c5.1,0,10.8,0,11,0l0,0c2.1,0.3,3.7,1.9,4.1,4c0.4,2-0.3,3.8-1.8,5c0.9,2.1,0.3,4.6-1.5,6
				c0.9,2.1,0.3,4.6-1.5,6c0.7,1.5,0.6,3.1-0.3,4.6C41.2,41.4,39.6,42.4,37.8,42.4z M13.1,41.4h24.7c0,0,0,0,0,0
				c1.4,0,2.7-0.8,3.4-2c0.7-1.3,0.8-2.8,0.1-4l-0.2-0.4l0.4-0.3c1.8-1.1,2.4-3.5,1.3-5.4l-0.2-0.4l0.4-0.3c1.8-1.1,2.4-3.5,1.3-5.4
				l-0.2-0.4l0.4-0.3c1.7-1.1,2-2.9,1.7-4.2c-0.3-1.3-1.3-2.9-3.2-3.2c-0.5,0-7.2,0-11.6,0l-0.7,0l1.8-5c1.1-2.9,0.3-7.1-2.4-8.6
				c-1-0.5-2.2-0.7-3.1-0.5c-0.5,0.1-1,0.5-1.2,0.9c-0.2,0.4-0.3,0.8-0.3,1.3c0,0.2-0.1,0.5-0.1,0.7c-0.4,2-1.3,3.8-2.7,5.2
				c-2.1,2.1-8.4,7.8-9.5,8.8V41.4z"/>
		</g>
	</g>
</g>
</svg>
