<?xml version="1.0" encoding="utf-8"?>
<!-- Generator: Adobe Illustrator 22.0.1, SVG Export Plug-In . SVG Version: 6.00 Build 0)  -->
<svg version="1.1" id="Warstwa_1" xmlns="http://www.w3.org/2000/svg" xmlns:xlink="http://www.w3.org/1999/xlink" x="0px" y="0px"
	 viewBox="0 0 43.2 42.2" style="enable-background:new 0 0 43.2 42.2;" xml:space="preserve">
<path d="M24.1,14.1h-8.6v28.2h8.6c0,0,0-10.4,0-14.8c0-4,1.9-6.3,5.4-6.3c3.3,0,4.9,2.3,4.9,6.3c0,4.1,0,14.8,0,14.8h8.9
	c0,0,0-10.3,0-17.8c0-7.5-4.4-11.2-10.5-11.2c-6.1,0-8.7,4.7-8.7,4.7L24.1,14.1L24.1,14.1z M9.8,14.1H0.9v28.2h8.9V14.1z M10.6,5.2
	c0,2.9-2.4,5.2-5.3,5.2C2.4,10.4,0,8.1,0,5.2C0,2.3,2.4,0,5.3,0C8.2,0,10.6,2.3,10.6,5.2z"/>
</svg>
