<?xml version="1.0" encoding="utf-8"?>
<!-- Generator: Adobe Illustrator 22.0.1, SVG Export Plug-In . SVG Version: 6.00 Build 0)  -->
<svg version="1.1" id="Layer_1" xmlns="http://www.w3.org/2000/svg" xmlns:xlink="http://www.w3.org/1999/xlink" x="0px" y="0px"
	 viewBox="0 0 37.3 29.5" style="enable-background:new 0 0 37.3 29.5;" xml:space="preserve">
<style type="text/css">
	.st0{fill:none;stroke:#000000;stroke-miterlimit:10;}
</style>
<g>
	<g>
		<path class="st0" d="M4,9.3c0.5,0.3,1.8,1.3,4.1,2.9c2.3,1.6,4.1,2.8,5.3,3.7c0.1,0.1,0.4,0.3,0.9,0.6c0.4,0.3,0.8,0.6,1.1,0.8
			c0.3,0.2,0.6,0.4,1.1,0.7c0.4,0.2,0.8,0.4,1.2,0.5c0.4,0.1,0.7,0.2,1,0.2h0c0.3,0,0.6-0.1,1-0.2c0.4-0.1,0.8-0.3,1.2-0.5
			c0.4-0.2,0.8-0.5,1.1-0.7c0.3-0.2,0.7-0.5,1.1-0.8c0.4-0.3,0.7-0.5,0.9-0.6c1.2-0.9,4.4-3.1,9.5-6.6c1-0.7,1.8-1.5,2.5-2.5
			c0.7-1,1-2,1-3.1c0-0.9-0.3-1.7-1-2.3c-0.6-0.6-1.4-1-2.3-1H3.7c-1,0-1.8,0.4-2.4,1.1C0.8,2.3,0.5,3.1,0.5,4.2
			C0.5,5,0.9,6,1.6,6.9C2.4,7.9,3.1,8.7,4,9.3z"/>
	</g>
	<path class="st0" d="M34.7,11.4c-4.4,3-7.8,5.3-10.1,7c-0.8,0.6-1.4,1-1.9,1.3c-0.5,0.3-1.1,0.6-1.9,1c-0.8,0.3-1.5,0.5-2.2,0.5h0
		c-0.7,0-1.4-0.2-2.2-0.5c-0.8-0.3-1.4-0.7-1.9-1c-0.5-0.3-1.1-0.8-1.9-1.3c-1.8-1.3-5.2-3.7-10.1-7c-0.8-0.5-1.5-1.1-2-1.8v16.1
		c0,0.9,0.3,1.7,1,2.3c0.6,0.6,1.4,1,2.3,1h29.8c0.9,0,1.7-0.3,2.3-1c0.6-0.6,1-1.4,1-2.3V9.7C36.2,10.3,35.5,10.9,34.7,11.4z"/>
</g>
</svg>
