<?xml version="1.0" encoding="utf-8"?>
<!-- Generator: Adobe Illustrator 22.0.1, SVG Export Plug-In . SVG Version: 6.00 Build 0)  -->
<svg version="1.1" id="Layer_1" xmlns="http://www.w3.org/2000/svg" xmlns:xlink="http://www.w3.org/1999/xlink" x="0px" y="0px"
	 viewBox="0 0 38 30.5" style="enable-background:new 0 0 38 30.5;" xml:space="preserve">
<style type="text/css">
	.st0{fill:#231F20;}
</style>
<g>
	<g>
		<path class="st0" d="M32.5,6C32.2,6,32,5.7,32,5.5V3.8c0-0.4-0.3-0.6-0.6-0.6h-2.8c-0.3,0-0.5-0.2-0.5-0.5s0.2-0.5,0.5-0.5h2.8
			c0.9,0,1.6,0.7,1.6,1.6v1.7C33,5.7,32.8,6,32.5,6z"/>
	</g>
	<g>
		<path class="st0" d="M29.1,5.4c-0.2,0-0.4-0.1-0.5-0.3l-1.3-4L13.2,5.4c-0.3,0.1-0.5-0.1-0.6-0.3c-0.1-0.3,0.1-0.5,0.3-0.6L27.5,0
			c0.3-0.1,0.5,0.1,0.6,0.3l1.5,4.4c0.1,0.3-0.1,0.5-0.3,0.6C29.2,5.4,29.1,5.4,29.1,5.4z"/>
	</g>
	<g>
		<path class="st0" d="M36.5,22.5h-8c-0.9,0-1.5-0.6-1.5-1.5v-5c0-0.9,0.6-1.5,1.5-1.5H34V9c0-0.4-0.1-0.5-0.5-0.5H3
			c-1.8,0-3-1.2-3-3s1.2-3,3-3h16c0.3,0,0.5,0.2,0.5,0.5S19.3,3.5,19,3.5H3c-1.2,0-2,0.8-2,2c0,1.3,0.7,2,2,2h30.5
			C34.4,7.5,35,8.1,35,9v5.5h2.5c0.3,0,0.5,0.2,0.5,0.5v6C38,21.9,37.4,22.5,36.5,22.5z M28.5,15.5c-0.4,0-0.5,0.1-0.5,0.5v5
			c0,0.4,0.1,0.5,0.5,0.5h8c0.4,0,0.5-0.1,0.5-0.5v-5.5H28.5z"/>
	</g>
	<g>
		<path class="st0" d="M33.5,30.5H3c-1.8,0-3-1.2-3-3v-22C0,5.2,0.2,5,0.5,5S1,5.2,1,5.5v22c0,1.3,0.7,2,2,2h30.5
			c0.4,0,0.5-0.1,0.5-0.5v-6c0-0.3,0.2-0.5,0.5-0.5S35,22.7,35,23v6C35,29.9,34.4,30.5,33.5,30.5z"/>
	</g>
</g>
</svg>
