<?xml version="1.0" encoding="utf-8"?>
<!-- Generator: Adobe Illustrator 22.0.1, SVG Export Plug-In . SVG Version: 6.00 Build 0)  -->
<svg version="1.1" id="Layer_1" xmlns="http://www.w3.org/2000/svg" xmlns:xlink="http://www.w3.org/1999/xlink" x="0px" y="0px"
	 viewBox="0 0 32.1 32" style="enable-background:new 0 0 32.1 32;" xml:space="preserve">
<g>
	<g>
		<path d="M25,31.9c-0.5,0-1-0.2-1.3-0.5c0,0-2.6-2.8-6.3-6.5c-0.2-0.2-0.2-0.5,0-0.7s0.5-0.2,0.7,0c3.7,3.7,6.3,6.5,6.3,6.5
			c0.2,0.2,0.4,0.2,0.6,0.2c0,0,0,0,0,0c0.3,0,0.6-0.1,0.7-0.2l5-5.1c0.2-0.2,0.3-0.7,0.1-0.9L24,18.1c-0.2-0.2-0.2-0.5,0-0.7
			s0.5-0.2,0.7,0l6.7,6.7c0.6,0.6,0.6,1.7-0.1,2.3l-5,5.1C26,31.7,25.5,31.9,25,31.9L25,31.9z"/>
	</g>
	<g>
		<path d="M7.5,14.9c-0.1,0-0.3,0-0.4-0.1C3.4,11,0.7,8.4,0.7,8.3C0,7.7-0.2,6.5,0.6,5.6l5-5c0.7-0.7,1.8-0.9,2.7,0
			c0,0.1,2.6,2.9,6.4,6.7c0.2,0.2,0.2,0.5,0,0.7s-0.5,0.2-0.7,0c-3.9-3.9-6.4-6.7-6.4-6.8c-0.6-0.6-1.1-0.2-1.3,0l-5,5
			c-0.5,0.5-0.2,1.1,0,1.3c0,0,2.7,2.6,6.5,6.4c0.2,0.2,0.2,0.5,0,0.7C7.8,14.9,7.7,14.9,7.5,14.9z"/>
	</g>
	<g>
		<path d="M22.7,29.8c-0.1,0-0.3,0-0.4-0.1c-0.2-0.2-0.2-0.5,0-0.7l3.8-3.8c0.2-0.2,0.5-0.2,0.7,0s0.2,0.5,0,0.7L23,29.7
			C22.9,29.7,22.8,29.8,22.7,29.8z"/>
	</g>
	<g>
		<path d="M19.7,26.8c-0.1,0-0.3,0-0.4-0.1c-0.2-0.2-0.2-0.5,0-0.7l1.8-1.8c0.2-0.2,0.5-0.2,0.7,0s0.2,0.5,0,0.7l-1.8,1.8
			C20,26.7,19.9,26.8,19.7,26.8z"/>
	</g>
	<g>
		<path d="M2.7,9.8c-0.1,0-0.3,0-0.4-0.1C2.1,9.5,2.1,9.2,2.3,9l3.8-3.8c0.2-0.2,0.5-0.2,0.7,0s0.2,0.5,0,0.7L3,9.7
			C2.9,9.8,2.8,9.8,2.7,9.8z"/>
	</g>
	<g>
		<path d="M5.7,12.8c-0.1,0-0.3,0-0.4-0.1c-0.2-0.2-0.2-0.5,0-0.7l1.8-1.8c0.2-0.2,0.5-0.2,0.7,0s0.2,0.5,0,0.7L6,12.7
			C5.9,12.7,5.8,12.8,5.7,12.8z"/>
	</g>
</g>
<g>
	<g>
		<path d="M0.5,32c-0.1,0-0.3-0.1-0.4-0.2C0,31.7,0,31.5,0,31.3l3.2-9.7c0-0.1,0.1-0.1,0.1-0.2L20.5,4.2C20.7,4,21,4,21.2,4.2
			l6.7,6.7c0.2,0.2,0.2,0.5,0,0.7L10.9,28.8c-0.1,0.1-0.1,0.1-0.2,0.1l-10,3C0.6,32,0.5,32,0.5,32z M4.1,22l-2.8,8.7l9-2.7
			l16.6-16.8l-6-6L4.1,22z"/>
	</g>
	<g>
		<path d="M27.6,11.8c-0.1,0-0.3,0-0.4-0.1c-0.2-0.2-0.2-0.5,0-0.7l3.7-3.7c0.1-0.1,0.2-0.2,0.2-0.4c0-0.1-0.1-0.3-0.2-0.4l-5.2-5.2
			c-0.2-0.2-0.6-0.2-0.8,0l-3.7,3.7c-0.2,0.2-0.5,0.2-0.7,0s-0.2-0.5,0-0.7l3.7-3.7c0.6-0.6,1.6-0.6,2.2,0l5.2,5.2
			c0.3,0.3,0.5,0.7,0.5,1.1c0,0.4-0.2,0.8-0.5,1.1l-3.7,3.7C27.8,11.7,27.7,11.8,27.6,11.8z"/>
	</g>
	<g>
		<path d="M9.9,28.6l-0.9-3c-0.1-0.2,0-0.4,0.1-0.5l16.2-16l0.7,0.7l-16,15.8l0.8,2.7L9.9,28.6z"/>
	</g>
	<g>
		<path d="M6.5,22.9c0,0-0.1,0-0.1,0l-2.9-0.7l0.2-1l2.6,0.6L22.2,6l0.7,0.7L6.9,22.8C6.8,22.9,6.7,22.9,6.5,22.9z"/>
	</g>
	<g>
		<path d="M9.5,26h-3C6.2,26,6,25.8,6,25.5v-3C6,22.2,6.2,22,6.5,22S7,22.2,7,22.5V25h2.5c0.3,0,0.5,0.2,0.5,0.5S9.8,26,9.5,26z"/>
	</g>
</g>
</svg>
