<?xml version="1.0" encoding="utf-8"?>
<!-- Generator: Adobe Illustrator 22.0.1, SVG Export Plug-In . SVG Version: 6.00 Build 0)  -->
<svg version="1.1" id="Warstwa_1" xmlns="http://www.w3.org/2000/svg" xmlns:xlink="http://www.w3.org/1999/xlink" x="0px" y="0px"
	 viewBox="0 0 212.8 28.2" style="enable-background:new 0 0 212.8 28.2;" xml:space="preserve">
<style type="text/css">
	.st0{fill:#231F20;}
	.st1{fill:#FFD300;}
	.st2{fill:#EC1651;}
	.st3{fill:#00B1DC;}
	.st4{fill:#4B345C;}
</style>
<path class="st0" d="M40.9,5.3h5V10h3.1v3.3H46v7c0,0.6,0.2,1,0.5,1.2c0.3,0.2,0.8,0.3,1.3,0.3c0.2,0,0.4,0,0.7,0c0.2,0,0.4,0,0.7,0
	v3.7c-0.5,0-0.9,0.1-1.4,0.1c-0.5,0-0.9,0.1-1.4,0.1c-1.1,0-2-0.1-2.7-0.3c-0.7-0.2-1.3-0.5-1.7-0.9c-0.4-0.4-0.7-1-0.8-1.7
	c-0.2-0.7-0.2-1.6-0.2-2.6V5.3z"/>
<path class="st0" d="M51.5,10h4.9v2.7h0.1c0.4-1,1-1.7,1.8-2.2C59,9.9,60,9.7,61.1,9.7c0.2,0,0.4,0,0.6,0c0.2,0,0.4,0,0.6,0.1v4.6
	c-0.3-0.1-0.7-0.2-1-0.2c-0.3,0-0.6-0.1-1-0.1c-0.6,0-1.2,0.1-1.6,0.3c-0.5,0.2-0.9,0.5-1.2,0.8c-0.3,0.3-0.6,0.7-0.7,1.2
	c-0.2,0.4-0.2,0.9-0.2,1.4v7.6h-5V10z"/>
<path class="st0" d="M63.3,14.7c0-1,0.3-1.8,0.7-2.5c0.4-0.7,1-1.2,1.7-1.6c0.7-0.4,1.5-0.7,2.3-0.8c0.8-0.2,1.7-0.2,2.6-0.2
	c0.9,0,1.8,0.1,2.7,0.2c0.9,0.1,1.6,0.4,2.3,0.8c0.7,0.4,1.2,0.9,1.6,1.6c0.4,0.7,0.6,1.6,0.6,2.6v6.7c0,0.7,0,1.3,0.1,2
	c0.1,0.7,0.2,1.3,0.5,1.9h-5.1c-0.1-0.2-0.2-0.5-0.2-0.7c0-0.2-0.1-0.5-0.1-0.7c-0.7,0.7-1.4,1.2-2.3,1.5c-0.9,0.3-1.8,0.4-2.7,0.4
	c-0.7,0-1.4-0.1-2.1-0.3c-0.6-0.2-1.2-0.5-1.7-0.9c-0.5-0.4-0.8-0.9-1.1-1.5c-0.3-0.6-0.4-1.3-0.4-2.1c0-0.8,0.1-1.5,0.4-2.1
	c0.3-0.6,0.7-1,1.1-1.4c0.5-0.4,1-0.6,1.6-0.8c0.6-0.2,1.2-0.4,1.9-0.5c0.7-0.1,1.3-0.2,2-0.3c0.7-0.1,1.3-0.2,1.9-0.3
	c0.4-0.1,0.8-0.2,1-0.4c0.2-0.2,0.3-0.5,0.3-1c0-0.3-0.1-0.5-0.2-0.7c-0.2-0.2-0.4-0.4-0.6-0.5c-0.2-0.1-0.5-0.2-0.8-0.3
	c-0.3-0.1-0.6-0.1-0.8-0.1c-1.4,0-2.3,0.6-2.5,1.9H63.3z M67.7,20.9c0,0.6,0.2,1.1,0.6,1.4c0.4,0.3,0.9,0.4,1.5,0.4
	c1.2,0,2-0.4,2.5-1.1c0.5-0.7,0.7-1.9,0.6-3.5c-0.4,0.2-0.8,0.4-1.4,0.5c-0.6,0.1-1.2,0.2-1.7,0.4c-0.6,0.1-1.1,0.3-1.5,0.6
	C67.9,19.9,67.7,20.3,67.7,20.9z"/>
<rect x="100.2" y="4.2" class="st0" width="5" height="3.9"/>
<rect x="100.2" y="10" class="st0" width="5" height="15.4"/>
<path class="st0" d="M117.5,15.6c0-0.3-0.1-0.6-0.2-0.9c-0.1-0.3-0.3-0.5-0.5-0.7c-0.2-0.2-0.5-0.4-0.8-0.5
	c-0.3-0.1-0.6-0.2-0.9-0.2c-0.7,0-1.3,0.1-1.7,0.4c-0.4,0.3-0.8,0.6-1,1.1c-0.2,0.4-0.4,0.9-0.5,1.5c-0.1,0.5-0.1,1.1-0.1,1.6
	c0,0.5,0.1,1,0.2,1.5c0.1,0.5,0.3,0.9,0.5,1.3c0.2,0.4,0.6,0.7,0.9,0.9c0.4,0.2,0.8,0.4,1.4,0.4c0.9,0,1.6-0.2,2-0.7
	c0.5-0.5,0.7-1.1,0.9-1.9h4.9c-0.1,1-0.4,1.9-0.8,2.8c-0.4,0.8-1,1.5-1.7,2c-0.7,0.6-1.5,1-2.4,1.3c-0.9,0.3-1.9,0.4-2.9,0.4
	c-1.2,0-2.2-0.2-3.2-0.6c-1-0.4-1.8-0.9-2.5-1.6c-0.7-0.7-1.3-1.5-1.7-2.5c-0.4-1-0.6-2-0.6-3.2c0-1.2,0.2-2.4,0.6-3.4
	c0.4-1,0.9-1.9,1.6-2.7c0.7-0.7,1.5-1.3,2.5-1.7c1-0.4,2.1-0.6,3.4-0.6c0.9,0,1.9,0.1,2.7,0.4c0.9,0.3,1.7,0.6,2.4,1.1
	c0.7,0.5,1.3,1.1,1.7,1.9c0.4,0.8,0.7,1.6,0.8,2.7H117.5z"/>
<path class="st0" d="M124.2,5.3h5V10h3.1v3.3h-3.1v7c0,0.6,0.2,1,0.5,1.2c0.3,0.2,0.8,0.3,1.3,0.3c0.2,0,0.4,0,0.6,0
	c0.2,0,0.4,0,0.7,0v3.7c-0.5,0-0.9,0.1-1.4,0.1c-0.5,0-0.9,0.1-1.4,0.1c-1.1,0-2-0.1-2.7-0.3c-0.7-0.2-1.3-0.5-1.7-0.9
	c-0.4-0.4-0.7-1-0.8-1.7c-0.2-0.7-0.2-1.6-0.2-2.6V5.3z"/>
<path class="st0" d="M134.7,10h4.9v2.7h0.1c0.4-1,1-1.7,1.8-2.2c0.8-0.5,1.8-0.8,2.8-0.8c0.2,0,0.4,0,0.6,0c0.2,0,0.4,0,0.6,0.1v4.6
	c-0.3-0.1-0.7-0.2-1-0.2c-0.3,0-0.6-0.1-1-0.1c-0.6,0-1.2,0.1-1.6,0.3c-0.5,0.2-0.9,0.5-1.2,0.8c-0.3,0.3-0.6,0.7-0.7,1.2
	c-0.2,0.4-0.2,0.9-0.2,1.4v7.6h-5V10z"/>
<path class="st0" d="M151,18.9c0,1.1,0.4,1.9,0.9,2.5c0.6,0.6,1.4,0.9,2.5,0.9c0.6,0,1.2-0.1,1.7-0.4c0.5-0.3,0.9-0.7,1.2-1.3h4.7
	c-0.2,0.9-0.6,1.7-1.1,2.3c-0.5,0.6-1.1,1.2-1.8,1.6c-0.7,0.4-1.4,0.7-2.3,0.9c-0.8,0.2-1.7,0.3-2.5,0.3c-1.2,0-2.4-0.2-3.4-0.5
	c-1-0.4-1.9-0.9-2.7-1.6c-0.7-0.7-1.3-1.6-1.7-2.6c-0.4-1-0.6-2.2-0.6-3.5c0-1.2,0.2-2.3,0.7-3.3c0.4-1,1-1.8,1.8-2.5
	c0.8-0.7,1.6-1.3,2.7-1.7c1-0.4,2.1-0.6,3.2-0.6c1.4,0,2.6,0.2,3.6,0.7c1,0.5,1.9,1.2,2.5,2c0.7,0.9,1.2,1.8,1.5,3
	c0.3,1.1,0.4,2.4,0.4,3.7H151z M157.2,16.1c0-0.9-0.3-1.6-0.9-2.2c-0.6-0.6-1.3-0.9-2.1-0.9c-0.9,0-1.6,0.3-2.2,0.9
	c-0.6,0.6-0.9,1.3-1.1,2.3H157.2z"/>
<path class="st0" d="M163.4,10h4.9v2.1h0.1c0.2-0.4,0.5-0.8,0.9-1.1c0.4-0.3,0.8-0.6,1.2-0.8c0.4-0.2,0.9-0.4,1.4-0.5
	c0.5-0.1,0.9-0.2,1.4-0.2c1.3,0,2.3,0.2,3,0.6c0.7,0.4,1.3,0.9,1.7,1.5c0.4,0.6,0.6,1.2,0.7,1.9c0.1,0.7,0.2,1.3,0.2,1.9v9.9h-5
	v-7.4c0-0.5,0-1,0-1.5c0-0.5-0.1-1-0.2-1.4c-0.1-0.4-0.4-0.7-0.7-1c-0.3-0.2-0.9-0.4-1.6-0.4c-0.5,0-0.9,0.1-1.2,0.3
	c-0.3,0.2-0.6,0.4-0.8,0.7c-0.2,0.3-0.4,0.7-0.5,1.1c-0.1,0.4-0.2,0.8-0.2,1.2v8.4h-5V10z"/>
<path class="st0" d="M196.4,25.4h-4.8v-1.8h-0.1c-1,1.5-2.4,2.2-4.2,2.2c-1.2,0-2.2-0.2-3.1-0.7c-0.9-0.5-1.6-1.1-2.1-1.9
	c-0.6-0.8-1-1.7-1.2-2.7c-0.3-1-0.4-2.1-0.4-3.2c0-1,0.1-2,0.4-2.9c0.3-0.9,0.7-1.8,1.2-2.5c0.5-0.7,1.2-1.3,2-1.8
	c0.8-0.4,1.8-0.7,2.8-0.7c1.9,0,3.3,0.7,4.4,2.1h0.1V4.2h5V25.4z M188.6,13.4c-0.6,0-1.1,0.1-1.5,0.4c-0.4,0.2-0.7,0.6-1,1
	c-0.2,0.4-0.4,0.8-0.5,1.3c-0.1,0.5-0.2,1-0.2,1.5c0,0.5,0.1,1.1,0.2,1.6c0.1,0.5,0.3,1,0.5,1.4c0.2,0.4,0.6,0.8,1,1
	c0.4,0.3,0.9,0.4,1.5,0.4c0.6,0,1.1-0.1,1.5-0.4c0.4-0.3,0.7-0.6,0.9-1c0.2-0.4,0.4-0.9,0.5-1.4c0.1-0.5,0.1-1,0.1-1.5
	c0-0.6-0.1-1.1-0.2-1.6c-0.1-0.5-0.3-1-0.5-1.4c-0.2-0.4-0.5-0.7-0.9-1C189.6,13.5,189.1,13.4,188.6,13.4z"/>
<path class="st0" d="M202.7,20.3c0,0.4,0.1,0.7,0.2,1c0.1,0.3,0.4,0.5,0.6,0.7c0.2,0.2,0.5,0.3,0.8,0.4c0.3,0.1,0.7,0.1,1,0.1
	c0.2,0,0.5,0,0.8-0.1c0.3-0.1,0.5-0.2,0.8-0.3c0.2-0.1,0.4-0.3,0.6-0.5c0.2-0.2,0.2-0.5,0.2-0.8c0-0.3-0.1-0.5-0.3-0.7
	c-0.2-0.2-0.4-0.3-0.6-0.5c-0.2-0.1-0.5-0.2-0.8-0.3c-0.3-0.1-0.5-0.1-0.8-0.2c-0.8-0.2-1.6-0.4-2.4-0.5c-0.8-0.2-1.6-0.4-2.3-0.7
	c-0.7-0.3-1.3-0.8-1.7-1.3c-0.4-0.6-0.7-1.4-0.7-2.4c0-0.9,0.2-1.7,0.7-2.3c0.4-0.6,1-1.1,1.7-1.4c0.7-0.4,1.5-0.6,2.3-0.8
	c0.8-0.1,1.6-0.2,2.4-0.2c0.9,0,1.7,0.1,2.5,0.2c0.8,0.1,1.6,0.4,2.2,0.8c0.7,0.4,1.2,0.9,1.6,1.5c0.4,0.6,0.7,1.5,0.7,2.5h-4.7
	c0-0.6-0.2-1.1-0.7-1.3c-0.4-0.3-0.9-0.4-1.6-0.4c-0.2,0-0.5,0-0.7,0c-0.2,0-0.5,0.1-0.7,0.1c-0.2,0.1-0.4,0.2-0.5,0.4
	c-0.1,0.2-0.2,0.4-0.2,0.6c0,0.4,0.2,0.7,0.6,0.9c0.4,0.2,0.8,0.4,1.4,0.6c0.6,0.1,1.2,0.3,1.9,0.4c0.7,0.1,1.3,0.2,1.9,0.4
	c0.8,0.2,1.4,0.4,1.9,0.7c0.5,0.3,0.9,0.7,1.2,1.1c0.3,0.4,0.5,0.8,0.6,1.2c0.1,0.4,0.2,0.8,0.2,1.1c0,1-0.2,1.9-0.7,2.6
	c-0.4,0.7-1,1.3-1.7,1.7c-0.7,0.4-1.5,0.7-2.4,0.9c-0.9,0.2-1.8,0.3-2.6,0.3c-0.9,0-1.8-0.1-2.7-0.3c-0.9-0.2-1.7-0.5-2.4-0.9
	c-0.7-0.4-1.3-1-1.7-1.7c-0.4-0.7-0.7-1.6-0.7-2.7H202.7z"/>
<rect class="st1" width="15.5" height="2.5"/>
<rect x="17" class="st1" width="15.5" height="2.5"/>
<rect y="2.5" class="st2" width="15.5" height="2.5"/>
<rect x="17" y="2.5" class="st2" width="15.5" height="2.5"/>
<rect y="10.3" class="st3" width="7.8" height="2.5"/>
<rect x="7.8" y="25.7" class="st3" width="7.7" height="2.5"/>
<polygon class="st4" points="0,7.8 0,10.3 7.8,10.3 7.8,12.7 7.8,23.2 7.8,25.7 15.5,25.7 15.5,23.2 15.5,4.9 0,4.9 "/>
<rect x="24.7" y="10.3" class="st3" width="7.8" height="2.5"/>
<rect x="17" y="25.7" class="st3" width="7.7" height="2.5"/>
<polygon class="st4" points="17,23.2 17,25.7 24.7,25.7 24.7,23.2 24.7,12.7 24.7,10.3 32.5,10.3 32.5,7.8 32.5,4.9 17,4.9 "/>
<path class="st0" d="M98,10h-2.5V9.3c0-0.7,0.2-1.1,0.5-1.3c0.3-0.2,0.8-0.3,1.4-0.3c0.2,0,0.4,0,0.7,0V4.2c-0.2,0-0.3,0-0.5,0
	c-0.4,0-0.8,0-1.2,0c-1.1,0-2,0.1-2.7,0.3c-0.8,0.2-1.4,0.5-1.8,0.9c-0.5,0.4-0.8,1-1,1.8c-0.2,0.7-0.3,1.7-0.3,2.8v15.4h5V13.2H98
	V10z"/>
<path class="st0" d="M88.1,10h-2.5V9.3c0-0.7,0.2-1.1,0.5-1.3c0.3-0.2,0.8-0.3,1.4-0.3c0.2,0,0.4,0,0.7,0V4.2c-0.2,0-0.3,0-0.5,0
	c-0.4,0-0.8,0-1.2,0c-1.1,0-2,0.1-2.7,0.3c-0.8,0.2-1.4,0.5-1.8,0.9c-0.5,0.4-0.8,1-1,1.8c-0.2,0.7-0.3,1.7-0.3,2.8v15.4h5V13.2h2.5
	V10z"/>
</svg>
